<svg width="20" height="20" viewBox="0 0 20 20" fill="none" xmlns="http://www.w3.org/2000/svg">
<path d="M1.66667 5.83337L8.47077 10.5962C9.02175 10.9819 9.29724 11.1748 9.59689 11.2495C9.86158 11.3154 10.1384 11.3154 10.4031 11.2495C10.7028 11.1748 10.9783 10.9819 11.5292 10.5962L18.3333 5.83337M5.66667 16.6667H14.3333C15.7335 16.6667 16.4335 16.6667 16.9683 16.3942C17.4387 16.1545 17.8212 15.7721 18.0609 15.3017C18.3333 14.7669 18.3333 14.0668 18.3333 12.6667V7.33337C18.3333 5.93324 18.3333 5.23318 18.0609 4.6984C17.8212 4.22799 17.4387 3.84554 16.9683 3.60586C16.4335 3.33337 15.7335 3.33337 14.3333 3.33337H5.66667C4.26654 3.33337 3.56647 3.33337 3.0317 3.60586C2.56129 3.84554 2.17884 4.22799 1.93916 4.6984C1.66667 5.23318 1.66667 5.93324 1.66667 7.33337V12.6667C1.66667 14.0668 1.66667 14.7669 1.93916 15.3017C2.17884 15.7721 2.56129 16.1545 3.0317 16.3942C3.56647 16.6667 4.26654 16.6667 5.66667 16.6667Z" stroke="#344054" stroke-width="1.66667" stroke-linecap="round" stroke-linejoin="round"/>
</svg>
